<?xml version="1.0" standalone="no"?>
<!DOCTYPE svg PUBLIC "-//W3C//DTD SVG 20010904//EN"
 "http://www.w3.org/TR/2001/REC-SVG-20010904/DTD/svg10.dtd">
<svg version="1.0" xmlns="http://www.w3.org/2000/svg"
 width="506.000000pt" height="506.000000pt" viewBox="0 0 506.000000 506.000000"
 preserveAspectRatio="xMidYMid meet">
<metadata>
Created by potrace 1.11, written by Peter Selinger 2001-2013
</metadata>
<g transform="translate(0.000000,506.000000) scale(0.100000,-0.100000)"
fill="#000000" stroke="none">
<path d="M930 2530 l0 -2200 1600 0 1600 0 0 2200 0 2200 -1600 0 -1600 0 0
-2200z m3080 0 l0 -2080 -1480 0 -1480 0 0 2080 0 2080 1480 0 1480 0 0 -2080z"/>
<path d="M2978 4044 c-2 -1 -16 -5 -31 -8 -62 -11 -136 -54 -167 -98 -85 -117
-105 -237 -105 -628 0 -529 14 -560 370 -834 55 -43 124 -103 153 -134 83 -89
87 -109 87 -467 0 -165 -4 -325 -8 -355 -21 -157 -50 -238 -99 -273 -39 -29
-166 -30 -205 -1 -50 36 -86 129 -99 254 -5 59 -5 483 1 513 5 25 3 27 -32 28
-60 2 -145 0 -149 -4 -9 -8 -16 -144 -17 -297 -1 -379 35 -544 144 -651 60
-58 107 -73 244 -75 117 -2 208 18 251 54 61 52 120 179 139 303 4 24 9 55 11
69 19 121 26 677 11 785 -26 174 -86 251 -347 440 -52 38 -102 75 -110 82 -60
54 -92 93 -116 142 l-28 56 -2 300 c-2 333 8 434 53 517 31 57 65 73 149 72
162 -2 204 -111 201 -519 l-2 -231 80 2 c44 1 85 2 91 3 15 1 19 63 18 331 0
254 -4 299 -39 402 -36 105 -96 171 -187 204 -37 14 -250 29 -260 18z"/>
<path d="M1576 3992 c-3 -3 -6 -664 -6 -1469 l0 -1464 107 3 107 3 0 693 0
692 53 0 c240 3 405 1 410 -3 3 -3 6 -315 6 -694 l2 -688 106 -3 106 -3 -1
1468 -1 1468 -106 2 -107 1 0 -665 c0 -365 -2 -667 -6 -670 -8 -8 -445 -7
-454 1 -4 4 -7 305 -7 669 l0 662 -102 2 c-56 1 -104 -1 -107 -5z"/>
</g>
</svg>
